<svg width="512" height="490" viewBox="0 0 512 490" fill="none" xmlns="http://www.w3.org/2000/svg">
<path d="M181.847 57.2824L256.955 52.1903L259.501 53.4633M336.518 42.6427L349.884 14L432.63 15.273L423.083 37.5507" stroke="#4CAE4F" stroke-width="15" stroke-linejoin="round"/>
<path d="M401.441 86.5616L460 35.0047L265.229 47.7348L204.125 106.293L165.934 24.8206L78.7332 23.5476L117.56 101.838" stroke="#4CAE4F" stroke-width="15" stroke-linejoin="round"/>
<path d="M204.125 105.657L116.287 99.9282L126.54 459.555L210.49 476.103" stroke="#4CAE4F" stroke-width="15" stroke-linejoin="round"/>
<path d="M401.442 86.5616L204.125 105.657L210.49 476.103L400.169 419.524L401.442 86.5616Z" stroke="#4CAE4F" stroke-width="15" stroke-linejoin="round"/>
<path d="M117.56 101.838L52 66.1934L97.8284 63.0109" stroke="#4CAE4F" stroke-width="15" stroke-linejoin="round"/>
<path d="M281.674 161.166L263.918 164.548L265.609 388.607L283.365 383.534V306.593L297.739 278.691L339.168 368.315L359.461 362.396L309.576 254.172L354.388 149.329L334.941 151.865L283.365 264.318L281.674 161.166Z" stroke="#4CAE4F" stroke-width="10" stroke-linejoin="round"/>
<circle cx="262" cy="165" r="10" fill="#4CAE4F"/>
<circle cx="284" cy="265" r="10" fill="#4CAE4F"/>
<circle cx="284" cy="162" r="10" fill="#4CAE4F"/>
<circle cx="284" cy="382" r="10" fill="#4CAE4F"/>
<circle cx="264" cy="389" r="10" fill="#4CAE4F"/>
<circle cx="284" cy="307" r="10" fill="#4CAE4F"/>
<circle cx="297" cy="281" r="10" fill="#4CAE4F"/>
<circle cx="332" cy="152" r="10" fill="#4CAE4F"/>
<circle cx="354" cy="149" r="10" fill="#4CAE4F"/>
<circle cx="312" cy="255" r="10" fill="#4CAE4F"/>
<circle cx="361" cy="362" r="10" fill="#4CAE4F"/>
<circle cx="339" cy="369" r="10" fill="#4CAE4F"/>
</svg>
